ffmpeg started on 2016-11-27 at 16:21:55
Report written to "Output/NVENCh264/results/ffmpeg/crowd_run_2160p50llhq15000k.log"
Command line:
Tools/ffmpeg/ffmpeg -benchmark -y -i Input/y4m/crowd_run_2160p50.y4m -c:v h264_nvenc -preset llhq -b:v 15000k -an Output/NVENCh264/encoded/crowd_run_2160p50llhq15000k.mkv
ffmpeg version N-82227-gdb23fde Copyright (c) 2000-2016 the FFmpeg developers
  built with gcc 5.4.0 (Ubuntu 5.4.0-6ubuntu1~16.04.2) 20160609
  configuration: --prefix=/home/jaroslav/ffmpeg_build --pkg-config-flags=--static --extra-cflags=-I/home/jaroslav/ffmpeg_build/include --extra-ldflags=-L/home/jaroslav/ffmpeg_build/lib --bindir=/home/jaroslav/bin --enable-gpl --enable-libass --enable-libfdk-aac --enable-libfreetype --enable-libmp3lame --enable-libopus --enable-libtheora --enable-libvorbis --enable-libvpx --enable-libx264 --enable-libx265 --enable-nvenc --enable-libmfx --enable-libxvid --enable-libgsm --enable-libopencore-amrnb --enable-version3 --enable-nonfree
  libavutil      55. 35.100 / 55. 35.100
  libavcodec     57. 66.101 / 57. 66.101
  libavformat    57. 57.100 / 57. 57.100
  libavdevice    57.  2.100 / 57.  2.100
  libavfilter     6. 66.100 /  6. 66.100
  libswscale      4.  3.100 /  4.  3.100
  libswresample   2.  4.100 /  2.  4.100
  libpostproc    54.  2.100 / 54.  2.100
Input #0, yuv4mpegpipe, from 'Input/y4m/crowd_run_2160p50.y4m':
  Duration: 00:00:10.00, start: 0.000000, bitrate: 4976642 kb/s
    Stream #0:0: Video: rawvideo (I420 / 0x30323449), yuv420p(progressive), 3840x2160, SAR 1:1 DAR 16:9, 50 fps, 50 tbr, 50 tbn, 50 tbc
[h264_nvenc @ 0x26a81c0] The variable bitrate rate-control requires the 'qmin' and/or 'qmax' option set.
Output #0, matroska, to 'Output/NVENCh264/encoded/crowd_run_2160p50llhq15000k.mkv':
  Metadata:
    encoder         : Lavf57.57.100
    Stream #0:0: Video: h264 (h264_nvenc) (Main) (H264 / 0x34363248), yuv420p, 3840x2160 [SAR 1:1 DAR 16:9], q=-1--1, 15000 kb/s, 50 fps, 1k tbn, 50 tbc
    Metadata:
      encoder         : Lavc57.66.101 h264_nvenc
    Side data:
      cpb: bitrate max/min/avg: 0/0/15000000 buffer size: 30000000 vbv_delay: -1
Stream mapping:
  Stream #0:0 -> #0:0 (rawvideo (native) -> h264 (h264_nvenc))
Press [q] to stop, [?] for help
frame=    4 fps=0.0 q=0.0 size=       0kB time=00:00:00.00 bitrate=N/A speed=   0x    frame=   17 fps= 16 q=0.0 size=       0kB time=00:00:00.00 bitrate=N/A speed=   0x    frame=   33 fps= 20 q=43.0 size=       1kB time=00:00:00.04 bitrate= 146.0kbits/s speed=0.0253x    frame=   51 fps= 24 q=40.0 size=       1kB time=00:00:00.40 bitrate=  14.9kbits/s speed=0.187x    frame=   69 fps= 26 q=40.0 size=       1kB time=00:00:00.76 bitrate=   7.9kbits/s speed=0.286x    frame=   87 fps= 27 q=40.0 size=       1kB time=00:00:01.12 bitrate=   5.3kbits/s speed=0.353x    frame=  105 fps= 28 q=40.0 size=       1kB time=00:00:01.48 bitrate=   4.0kbits/s speed= 0.4x    frame=  115 fps= 20 q=40.0 size=       1kB time=00:00:01.68 bitrate=   3.6kbits/s speed=0.293x    frame=  116 fps= 12 q=40.0 size=       1kB time=00:00:01.70 bitrate=   3.5kbits/s speed=0.183x    frame=  117 fps= 12 q=40.0 size=       1kB time=00:00:01.72 bitrate=   3.5kbits/s speed=0.173x    frame=  135 fps= 13 q=40.0 size=       1kB time=00:00:02.08 bitrate=   2.9kbits/s speed=0.198x    frame=  153 fps= 14 q=40.0 size=       1kB time=00:00:02.44 bitrate=   2.5kbits/s speed=0.222x    frame=  170 fps= 15 q=40.0 size=    5150kB time=00:00:02.78 bitrate=15170.0kbits/s speed=0.241x    frame=  178 fps= 15 q=40.0 size=    5150kB time=00:00:02.94 bitrate=14344.7kbits/s speed=0.244x    frame=  188 fps= 15 q=40.0 size=    5150kB time=00:00:03.14 bitrate=13431.3kbits/s speed=0.25x    frame=  196 fps= 15 q=40.0 size=    5150kB time=00:00:03.30 bitrate=12780.3kbits/s speed=0.252x    frame=  205 fps= 15 q=40.0 size=    5150kB time=00:00:03.48 bitrate=12119.4kbits/s speed=0.256x    frame=  214 fps= 15 q=40.0 size=    5150kB time=00:00:03.66 bitrate=11523.6kbits/s speed=0.259x    frame=  223 fps= 15 q=40.0 size=    5150kB time=00:00:03.84 bitrate=10983.5kbits/s speed=0.262x    frame=  232 fps= 15 q=40.0 size=    5150kB time=00:00:04.02 bitrate=10491.9kbits/s speed=0.264x    frame=  241 fps= 15 q=40.0 size=    5150kB time=00:00:04.20 bitrate=10042.3kbits/s speed=0.267x    frame=  250 fps= 15 q=40.0 size=    5150kB time=00:00:04.38 bitrate=9629.7kbits/s speed=0.27x    frame=  259 fps= 15 q=40.0 size=    5150kB time=00:00:04.56 bitrate=9249.7kbits/s speed=0.272x    frame=  269 fps= 16 q=40.0 size=    5150kB time=00:00:04.76 bitrate=8861.1kbits/s speed=0.276x    frame=  278 fps= 16 q=40.0 size=    5150kB time=00:00:04.94 bitrate=8538.3kbits/s speed=0.278x    frame=  291 fps= 16 q=41.0 size=    9266kB time=00:00:05.20 bitrate=14594.5kbits/s speed=0.285x    frame=  307 fps= 16 q=40.0 size=    9266kB time=00:00:05.52 bitrate=13748.6kbits/s speed=0.291x    frame=  324 fps= 17 q=40.0 size=    9266kB time=00:00:05.86 bitrate=12951.0kbits/s speed=0.301x    frame=  342 fps= 17 q=40.0 size=    9266kB time=00:00:06.22 bitrate=12201.6kbits/s speed=0.311x    frame=  360 fps= 18 q=40.0 size=    9266kB time=00:00:06.58 bitrate=11534.1kbits/s speed=0.321x    frame=  378 fps= 18 q=40.0 size=    9266kB time=00:00:06.94 bitrate=10935.9kbits/s speed=0.33x    frame=  396 fps= 18 q=41.0 size=    9266kB time=00:00:07.30 bitrate=10396.7kbits/s speed=0.339x    frame=  414 fps= 19 q=40.0 size=    9266kB time=00:00:07.66 bitrate=9908.1kbits/s speed=0.347x    frame=  428 fps= 19 q=40.0 size=   14404kB time=00:00:07.94 bitrate=14859.1kbits/s speed=0.352x    frame=  446 fps= 19 q=41.0 size=   14404kB time=00:00:08.30 bitrate=14214.7kbits/s speed=0.359x    frame=  464 fps= 20 q=40.0 size=   14404kB time=00:00:08.66 bitrate=13623.8kbits/s speed=0.367x    frame=  482 fps= 20 q=40.0 size=   14404kB time=00:00:09.02 bitrate=13080.2kbits/s speed=0.374x    frame=  500 fps= 20 q=39.0 size=   14404kB time=00:00:09.38 bitrate=12578.2kbits/s speed=0.381x    frame=  500 fps= 20 q=40.0 Lsize=   18343kB time=00:00:09.98 bitrate=15054.9kbits/s speed=0.404x    
video:18338kB audio:0kB subtitle:0kB other streams:0kB global headers:0kB muxing overhead: 0.025972%
bench: utime=1.136s
bench: maxrss=1421144kB
